<svg width="1066" height="334" viewBox="0 0 1066 334" fill="none" xmlns="http://www.w3.org/2000/svg">
<path d="M206 187.249C206 232.473 176.854 270.89 136.322 284.74C127.985 288.646 115.691 296.678 112.255 315.095C111.811 317.475 111.515 320.03 111.394 322.771C111.254 325.967 111.352 329.418 111.733 333.145C111.104 331.481 109.876 327.637 108.461 322.217C107.489 318.495 106.428 314.03 105.412 309.017C104.835 306.17 104.272 303.146 103.748 299.982C103.232 296.862 102.753 293.606 102.335 290.247C98.8024 261.859 99.6299 226.164 118.925 203.945C86.7778 230.024 85.3173 266.367 88.4614 289.231C88.2071 289.195 87.953 289.159 87.6992 289.121C73.328 269.381 63.2866 243.973 69.8653 217.816C77.5521 187.251 94.1426 172.601 112.373 156.502C120.953 148.925 129.897 141.027 138.446 130.998C154.677 111.957 157.727 91.4001 157.103 75.8939C184.721 111.966 206 149.084 206 187.249Z" fill="url(#paint0_linear_2003_105)"/>
<path d="M154.698 72.7752C153.863 83.2361 149.898 104.905 132.025 122.778C125.47 129.333 117.86 135.283 109.977 141.448L109.357 141.933C109.336 130.043 106.737 99.9585 83.4788 72.6908C100.12 108.998 99.0799 138.484 97.3734 151.514C79.293 166.558 61.9293 184.941 54.4538 216.274C48.5891 240.856 55.6929 264.451 65.5531 283.231C27.1829 268.25 0 230.924 0 187.249C0 135.122 30.9019 97.4275 57.1745 65.3797C76.6009 41.6829 93.4963 21.0735 93.4963 0C100.216 8.00081 107.168 16.0577 114.17 24.1706C127.963 40.1545 141.945 56.3562 154.698 72.7752Z" fill="url(#paint1_linear_2003_105)"/>
<path d="M250.137 155V60.5H332.217V155H309.807V80.9526H272.547V155H250.137Z" fill="white"/>
<path d="M396.401 157.025C389.156 157.025 382.451 155.788 376.286 153.313C370.166 150.793 364.834 147.305 360.289 142.85C355.744 138.395 352.211 133.175 349.691 127.19C347.216 121.205 345.979 114.725 345.979 107.75C345.979 100.73 347.216 94.2276 349.691 88.2426C352.211 82.2576 355.744 77.0375 360.289 72.5826C364.834 68.1276 370.166 64.6626 376.286 62.1875C382.451 59.7126 389.156 58.4751 396.401 58.4751C403.691 58.4751 410.396 59.7351 416.516 62.2551C422.636 64.7751 427.969 68.2851 432.514 72.7851C437.059 77.2851 440.569 82.5276 443.044 88.5126C445.564 94.4526 446.824 100.865 446.824 107.75C446.824 114.725 445.564 121.205 443.044 127.19C440.569 133.175 437.059 138.395 432.514 142.85C427.969 147.305 422.636 150.793 416.516 153.313C410.396 155.788 403.691 157.025 396.401 157.025ZM396.401 135.965C400.316 135.965 403.894 135.313 407.134 134.008C410.419 132.703 413.276 130.813 415.706 128.338C418.136 125.863 420.004 122.893 421.309 119.428C422.659 115.918 423.334 112.025 423.334 107.75C423.334 101.99 422.164 96.9951 419.824 92.7651C417.529 88.5351 414.334 85.2726 410.239 82.9776C406.189 80.6376 401.576 79.4676 396.401 79.4676C392.531 79.4676 388.954 80.1426 385.669 81.4925C382.384 82.7976 379.526 84.6876 377.096 87.1626C374.711 89.6376 372.844 92.6076 371.494 96.0726C370.144 99.5376 369.469 103.43 369.469 107.75C369.469 113.465 370.639 118.438 372.979 122.668C375.319 126.898 378.514 130.183 382.564 132.523C386.659 134.818 391.271 135.965 396.401 135.965Z" fill="white"/>
<path d="M457.158 156.823L449.868 136.37C452.883 135.425 455.448 134.368 457.563 133.198C459.723 131.983 461.5 130.385 462.895 128.405C464.29 126.38 465.37 123.703 466.135 120.373C466.945 117.043 467.485 112.813 467.755 107.683C468.07 102.508 468.228 96.1401 468.228 88.5801V60.5H539.44V155H517.03V80.9526H489.423V87.5676C489.423 97.2426 489.108 105.658 488.478 112.813C487.893 119.968 486.88 126.088 485.44 131.173C484 136.258 482.043 140.488 479.568 143.863C477.093 147.238 474.01 149.96 470.32 152.03C466.675 154.1 462.288 155.698 457.158 156.823Z" fill="white"/>
<path d="M558.971 155V60.5H581.381V155H558.971Z" fill="white"/>
<path d="M644.703 157.025C634.938 157.025 626.321 155.023 618.851 151.018C611.381 147.013 605.553 141.343 601.368 134.008C597.183 126.673 595.091 118.01 595.091 108.02C595.091 100.73 596.306 94.0701 598.736 88.0401C601.211 81.9651 604.676 76.7226 609.131 72.3126C613.631 67.9026 618.918 64.5051 624.993 62.1201C631.113 59.6901 637.796 58.4751 645.041 58.4751C652.916 58.4751 659.531 59.4651 664.886 61.4451C670.241 63.4251 675.078 66.2376 679.398 69.8826L668.193 88.3101C665.583 85.6101 662.433 83.6076 658.743 82.3026C655.053 80.9526 650.981 80.2776 646.526 80.2776C642.116 80.2776 638.178 80.9301 634.713 82.2351C631.293 83.4951 628.368 85.3176 625.938 87.7026C623.553 90.0876 621.731 92.9676 620.471 96.3426C619.211 99.7176 618.581 103.498 618.581 107.683C618.581 113.443 619.706 118.37 621.956 122.465C624.251 126.56 627.513 129.71 631.743 131.915C635.973 134.075 641.036 135.155 646.931 135.155C651.161 135.155 655.346 134.525 659.486 133.265C663.671 131.96 667.631 129.868 671.366 126.988L681.626 145.82C677.261 149.195 672.041 151.918 665.966 153.988C659.891 156.013 652.803 157.025 644.703 157.025Z" fill="white"/>
<path d="M692.526 155V60.5H714.936V92.5626H730.394C737.414 92.5626 743.646 93.8001 749.091 96.2751C754.581 98.7051 758.879 102.26 761.984 106.94C765.134 111.62 766.709 117.245 766.709 123.815C766.709 128.765 765.899 133.175 764.279 137.045C762.659 140.915 760.251 144.2 757.056 146.9C753.906 149.555 750.059 151.58 745.514 152.975C740.969 154.325 735.749 155 729.854 155H692.526ZM714.936 136.235H729.314C734.039 136.235 737.706 135.313 740.316 133.468C742.971 131.578 744.299 128.473 744.299 124.153C744.299 119.833 742.926 116.705 740.181 114.77C737.481 112.79 733.904 111.8 729.449 111.8H714.936V136.235Z" fill="white"/>
<path d="M836.669 155L798.667 106.13L833.024 60.5H860.969L826.004 106.063L865.492 155H836.669ZM778.552 155V60.5H800.962V95.5326H818.782V115.985H800.962V155H778.552Z" fill="white"/>
<path d="M874.86 155V60.5H897.068V119.563L935.34 60.5H957.615V155H935.408V95.1951L897 155H874.86Z" fill="white"/>
<path d="M977.234 155V60.5H999.441V119.563L1037.71 60.5H1059.99V155H1037.78V95.1951L999.374 155H977.234ZM1018.61 51.0501C1012.99 51.0501 1008.08 49.9925 1003.9 47.8775C999.711 45.7175 996.471 42.7475 994.176 38.9675C991.926 35.1875 990.846 30.8001 990.936 25.8051H1008.89C1008.71 29.0901 1009.5 31.745 1011.25 33.77C1013.05 35.75 1015.51 36.74 1018.61 36.74C1021.72 36.74 1024.15 35.75 1025.9 33.77C1027.66 31.745 1028.47 29.0901 1028.33 25.8051H1046.29C1046.38 30.7101 1045.25 35.0751 1042.91 38.9001C1040.62 42.6801 1037.35 45.6501 1033.12 47.8101C1028.94 49.9701 1024.1 51.0501 1018.61 51.0501Z" fill="white"/>
<path d="M239.441 266L272.39 177.8H296.645L329.909 266H306.347L300.11 248.108H268.484L262.373 266H239.441ZM273.209 230.657H295.259L284.171 200.165L273.209 230.657Z" fill="white"/>
<path d="M336.349 266V201.74H380.512V218.12H357.013V266H336.349Z" fill="white"/>
<path d="M389.323 292.46V201.74H407.152V209.111C409.546 206.297 412.591 204.05 416.287 202.37C420.025 200.69 424.351 199.85 429.265 199.85C435.397 199.85 440.857 201.257 445.645 204.071C450.475 206.885 454.276 210.854 457.048 215.978C459.82 221.102 461.206 227.066 461.206 233.87C461.206 238.658 460.408 243.131 458.812 247.289C457.258 251.405 455.032 255.017 452.134 258.125C449.236 261.191 445.813 263.585 441.865 265.307C437.959 267.029 433.633 267.89 428.887 267.89C425.107 267.89 421.621 267.281 418.429 266.063C415.279 264.845 412.444 263.123 409.924 260.897V292.46H389.323ZM425.422 250.124C428.404 250.124 431.071 249.473 433.423 248.171C435.775 246.827 437.623 244.937 438.967 242.501C440.311 240.065 440.983 237.188 440.983 233.87C440.983 230.51 440.29 227.633 438.904 225.239C437.56 222.803 435.712 220.934 433.36 219.632C431.05 218.288 428.404 217.616 425.422 217.616C422.482 217.616 419.836 218.288 417.484 219.632C415.132 220.934 413.284 222.803 411.94 225.239C410.596 227.633 409.924 230.51 409.924 233.87C409.924 237.188 410.596 240.065 411.94 242.501C413.284 244.937 415.111 246.827 417.421 248.171C419.773 249.473 422.44 250.124 425.422 250.124Z" fill="white"/>
<path d="M502.017 267.89C495.003 267.89 488.808 266.357 483.432 263.291C478.056 260.183 473.835 256.046 470.769 250.88C467.745 245.714 466.233 240.044 466.233 233.87C466.233 229.376 467.094 225.092 468.816 221.018C470.58 216.902 473.058 213.269 476.25 210.119C479.442 206.927 483.222 204.428 487.59 202.622C491.958 200.774 496.767 199.85 502.017 199.85C509.031 199.85 515.226 201.404 520.602 204.512C525.978 207.578 530.178 211.694 533.202 216.86C536.226 222.026 537.738 227.696 537.738 233.87C537.738 238.364 536.877 242.669 535.155 246.785C533.433 250.859 530.976 254.471 527.784 257.621C524.592 260.771 520.812 263.27 516.444 265.118C512.076 266.966 507.267 267.89 502.017 267.89ZM502.017 250.124C504.957 250.124 507.603 249.473 509.955 248.171C512.307 246.827 514.155 244.937 515.499 242.501C516.843 240.065 517.515 237.188 517.515 233.87C517.515 230.51 516.843 227.633 515.499 225.239C514.197 222.803 512.37 220.934 510.018 219.632C507.666 218.288 504.999 217.616 502.017 217.616C499.035 217.616 496.368 218.288 494.016 219.632C491.664 220.934 489.816 222.803 488.472 225.239C487.128 227.633 486.456 230.51 486.456 233.87C486.456 237.188 487.128 240.065 488.472 242.501C489.858 244.937 491.727 246.827 494.079 248.171C496.431 249.473 499.077 250.124 502.017 250.124Z" fill="white"/>
<path d="M539.031 266.189L562.152 234.311L540.228 201.74H566.31L576.579 220.136L586.596 201.74H612.111L590.817 233.933L613.686 266H587.226L575.886 247.856L564.42 265.811L539.031 266.189Z" fill="white"/>
<path d="M650.663 267.89C643.649 267.89 637.454 266.357 632.078 263.291C626.702 260.183 622.481 256.046 619.415 250.88C616.391 245.714 614.879 240.044 614.879 233.87C614.879 229.376 615.74 225.092 617.462 221.018C619.226 216.902 621.704 213.269 624.896 210.119C628.088 206.927 631.868 204.428 636.236 202.622C640.604 200.774 645.413 199.85 650.663 199.85C657.677 199.85 663.872 201.404 669.248 204.512C674.624 207.578 678.824 211.694 681.848 216.86C684.872 222.026 686.384 227.696 686.384 233.87C686.384 238.364 685.523 242.669 683.801 246.785C682.079 250.859 679.622 254.471 676.43 257.621C673.238 260.771 669.458 263.27 665.09 265.118C660.722 266.966 655.913 267.89 650.663 267.89ZM650.663 250.124C653.603 250.124 656.249 249.473 658.601 248.171C660.953 246.827 662.801 244.937 664.145 242.501C665.489 240.065 666.161 237.188 666.161 233.87C666.161 230.51 665.489 227.633 664.145 225.239C662.843 222.803 661.016 220.934 658.664 219.632C656.312 218.288 653.645 217.616 650.663 217.616C647.681 217.616 645.014 218.288 642.662 219.632C640.31 220.934 638.462 222.803 637.118 225.239C635.774 227.633 635.102 230.51 635.102 233.87C635.102 237.188 635.774 240.065 637.118 242.501C638.504 244.937 640.373 246.827 642.725 248.171C645.077 249.473 647.723 250.124 650.663 250.124Z" fill="white"/>
<path d="M695.966 267.575L689.288 249.305C693.614 248.213 696.742 246.617 698.674 244.517C700.648 242.417 701.888 239.603 702.392 236.075C702.938 232.505 703.211 227.99 703.211 222.53V201.74H759.848V266H739.184V218.12H721.984V222.53C721.984 229.082 721.586 234.899 720.788 239.981C720.032 245.021 718.687 249.389 716.755 253.085C714.865 256.781 712.24 259.826 708.88 262.22C705.52 264.614 701.216 266.399 695.966 267.575Z" fill="white"/>
<path d="M819.392 266V218.12H800.933V222.53C800.933 227.444 800.513 232.19 799.673 236.768C798.833 241.304 797.363 245.483 795.263 249.305C793.163 253.085 790.265 256.298 786.569 258.944C782.915 261.59 778.253 263.459 772.583 264.551L768.677 250.187C772.415 249.347 775.25 247.583 777.182 244.895C779.156 242.207 780.479 238.91 781.151 235.004C781.823 231.098 782.159 226.94 782.159 222.53V201.74H840.056V266H819.392ZM768.677 284.9V250.187L779.45 250.943L782.726 249.62H852.908V284.9H834.071V266H787.514V284.9H768.677Z" fill="white"/>
<path d="M860.73 266V201.74H880.449V237.02L908.169 201.74H926.691V266H906.972V230.216L879.189 266H860.73Z" fill="white"/>
<path d="M941.267 266V201.74H961.931V224.861H986.564V201.74H1007.23V266H986.564V241.241H961.931V266H941.267Z" fill="white"/>
<path d="M1021.8 266V201.74H1065.97V218.12H1042.47V266H1021.8Z" fill="white"/>
<defs>
<linearGradient id="paint0_linear_2003_105" x1="103" y1="47" x2="103" y2="333.145" gradientUnits="userSpaceOnUse">
<stop stop-color="white"/>
<stop offset="1" stop-color="#D4E6C6"/>
</linearGradient>
<linearGradient id="paint1_linear_2003_105" x1="103" y1="0" x2="103" y2="333.145" gradientUnits="userSpaceOnUse">
<stop stop-color="#E5F2DB"/>
<stop offset="1" stop-color="#BBDFB3"/>
</linearGradient>
</defs>
</svg>
